<mxfile host="app.diagrams.net" agent="Mozilla/5.0 (Windows NT 10.0; Win64; x64) AppleWebKit/537.36 (KHTML, like Gecko) Chrome/128.0.0.0 Safari/537.36" version="24.7.17">
  <diagram name="第 1 页" id="K3cvjTyD4AFAtQoy9mDF">
    <mxGraphModel dx="1050" dy="621" grid="1" gridSize="10" guides="1" tooltips="1" connect="1" arrows="1" fold="1" page="1" pageScale="1" pageWidth="827" pageHeight="1169" math="0" shadow="0">
      <root>
        <mxCell id="0" />
        <mxCell id="1" parent="0" />
        <mxCell id="kFYELQRQKJDRdb7ee6oj-4" value="" style="edgeStyle=orthogonalEdgeStyle;rounded=0;orthogonalLoop=1;jettySize=auto;html=1;" edge="1" parent="1" source="kFYELQRQKJDRdb7ee6oj-2" target="kFYELQRQKJDRdb7ee6oj-3">
          <mxGeometry relative="1" as="geometry" />
        </mxCell>
        <mxCell id="kFYELQRQKJDRdb7ee6oj-2" value="时刻表" style="rounded=0;whiteSpace=wrap;html=1;fontSize=14;fontStyle=1" vertex="1" parent="1">
          <mxGeometry x="180" y="310" width="120" height="60" as="geometry" />
        </mxCell>
        <mxCell id="kFYELQRQKJDRdb7ee6oj-6" value="" style="edgeStyle=orthogonalEdgeStyle;rounded=0;orthogonalLoop=1;jettySize=auto;html=1;" edge="1" parent="1" source="kFYELQRQKJDRdb7ee6oj-3" target="kFYELQRQKJDRdb7ee6oj-7">
          <mxGeometry relative="1" as="geometry" />
        </mxCell>
        <mxCell id="kFYELQRQKJDRdb7ee6oj-3" value="&lt;b&gt;&lt;font style=&quot;font-size: 14px;&quot;&gt;时刻表安排&lt;/font&gt;&lt;/b&gt;&lt;div&gt;（给每个日期绑定一个时刻表）&lt;/div&gt;" style="rounded=0;whiteSpace=wrap;html=1;" vertex="1" parent="1">
          <mxGeometry x="180" y="400" width="120" height="60" as="geometry" />
        </mxCell>
        <mxCell id="kFYELQRQKJDRdb7ee6oj-8" value="" style="edgeStyle=orthogonalEdgeStyle;rounded=0;orthogonalLoop=1;jettySize=auto;html=1;exitX=0.5;exitY=1;exitDx=0;exitDy=0;" edge="1" parent="1" source="kFYELQRQKJDRdb7ee6oj-5" target="kFYELQRQKJDRdb7ee6oj-7">
          <mxGeometry relative="1" as="geometry" />
        </mxCell>
        <mxCell id="kFYELQRQKJDRdb7ee6oj-5" value="&lt;b&gt;&lt;font style=&quot;font-size: 14px;&quot;&gt;交路参数设置&lt;/font&gt;&lt;/b&gt;&lt;div&gt;（包含便乘、顶饭圈、交接班时间点出退勤提前量、高峰交路、备班轮乘、回库接出站）&lt;/div&gt;" style="rounded=0;whiteSpace=wrap;html=1;" vertex="1" parent="1">
          <mxGeometry x="370" y="360" width="120" height="100" as="geometry" />
        </mxCell>
        <mxCell id="kFYELQRQKJDRdb7ee6oj-7" value="生成交路" style="rounded=0;whiteSpace=wrap;html=1;fontStyle=1;fontSize=14;" vertex="1" parent="1">
          <mxGeometry x="270" y="520" width="120" height="60" as="geometry" />
        </mxCell>
      </root>
    </mxGraphModel>
  </diagram>
</mxfile>
